<?xml version="1.0" encoding="UTF-8"?>
<svg version="1.1" xmlns="http://www.w3.org/2000/svg" width="30" height="30">
<path d="M0 0 C9.9 0 19.8 0 30 0 C30 9.9 30 19.8 30 30 C20.1 30 10.2 30 0 30 C0 20.1 0 10.2 0 0 Z " fill="#EEEEED" transform="translate(0,0)"/>
<path d="M0 0 C0.79921875 0.01804688 1.5984375 0.03609375 2.421875 0.0546875 C3.02515625 0.07789063 3.6284375 0.10109375 4.25 0.125 C4.25 0.785 4.25 1.445 4.25 2.125 C6.56 2.125 8.87 2.125 11.25 2.125 C11.25 2.785 11.25 3.445 11.25 4.125 C9.27 4.125 7.29 4.125 5.25 4.125 C5.25 6.765 5.25 9.405 5.25 12.125 C3.93 12.455 2.61 12.785 1.25 13.125 C1.745 14.176875 2.24 15.22875 2.75 16.3125 C4.06786289 19.37715284 4.64711537 21.74951933 4.25 25.125 C3.25 26.125 3.25 26.125 -0.1875 26.25 C-3.75 26.125 -3.75 26.125 -5.75 25.125 C-5.75 23.475 -5.75 21.825 -5.75 20.125 C-6.74 19.795 -7.73 19.465 -8.75 19.125 C-8.875 13.375 -8.875 13.375 -7.75 11.125 C-8.41 10.795 -9.07 10.465 -9.75 10.125 C-9.09 9.795 -8.43 9.465 -7.75 9.125 C-7.75 7.805 -7.75 6.485 -7.75 5.125 C-8.41 5.125 -9.07 5.125 -9.75 5.125 C-8.75 2.125 -8.75 2.125 -6.984375 0.9453125 C-4.49281777 0.03057995 -2.64383164 -0.07775975 0 0 Z " fill="#DBD8D5" transform="translate(15.75,2.875)"/>
<path d="M0 0 C0.66 0.99 1.32 1.98 2 3 C1.34 3 0.68 3 0 3 C0.495 4.051875 0.99 5.10375 1.5 6.1875 C2.81786289 9.25215284 3.39711537 11.62451933 3 15 C2 16 2 16 -1.4375 16.125 C-5 16 -5 16 -7 15 C-5.99766355 5.31074766 -5.99766355 5.31074766 -4 1 C-1.875 0.125 -1.875 0.125 0 0 Z " fill="#A5583C" transform="translate(17,13)"/>
<path d="M0 0 C0.79921875 0.01804688 1.5984375 0.03609375 2.421875 0.0546875 C3.02515625 0.07789063 3.6284375 0.10109375 4.25 0.125 C4.25 0.455 4.25 0.785 4.25 1.125 C2.97125 1.33125 1.6925 1.5375 0.375 1.75 C-1.82813968 2.20983533 -1.82813968 2.20983533 -3.75 3.125 C-5.36147442 6.11928144 -5.36147442 6.11928144 -5.75 9.125 C-3.77 8.795 -1.79 8.465 0.25 8.125 C-0.74 8.62 -0.74 8.62 -1.75 9.125 C-2.10840222 11.45461443 -2.43848712 13.78865343 -2.75 16.125 C-3.8125 19.0625 -3.8125 19.0625 -4.75 21.125 C-6.07 20.465 -7.39 19.805 -8.75 19.125 C-8.875 13.375 -8.875 13.375 -7.75 11.125 C-8.41 10.795 -9.07 10.465 -9.75 10.125 C-9.09 9.795 -8.43 9.465 -7.75 9.125 C-7.75 7.805 -7.75 6.485 -7.75 5.125 C-8.41 5.125 -9.07 5.125 -9.75 5.125 C-8.75 2.125 -8.75 2.125 -6.984375 0.9453125 C-4.49281777 0.03057995 -2.64383164 -0.07775975 0 0 Z " fill="#AA9A93" transform="translate(15.75,2.875)"/>
<path d="M0 0 C0.79921875 0.01804688 1.5984375 0.03609375 2.421875 0.0546875 C3.02515625 0.07789063 3.6284375 0.10109375 4.25 0.125 C4.25 0.455 4.25 0.785 4.25 1.125 C2.97125 1.33125 1.6925 1.5375 0.375 1.75 C-1.82813968 2.20983533 -1.82813968 2.20983533 -3.75 3.125 C-5.36147442 6.11928144 -5.36147442 6.11928144 -5.75 9.125 C-6.08 8.135 -6.41 7.145 -6.75 6.125 C-7.08 5.795 -7.41 5.465 -7.75 5.125 C-8.41 5.125 -9.07 5.125 -9.75 5.125 C-8.75 2.125 -8.75 2.125 -6.984375 0.9453125 C-4.49281777 0.03057995 -2.64383164 -0.07775975 0 0 Z " fill="#AEA5A0" transform="translate(15.75,2.875)"/>
<path d="M0 0 C0.66 0 1.32 0 2 0 C2.33 1.98 2.66 3.96 3 6 C1.02 6.99 1.02 6.99 -1 8 C-1.04241723 5.66705225 -1.04092937 3.33297433 -1 1 C-0.67 0.67 -0.34 0.34 0 0 Z " fill="#EBEAE8" transform="translate(10,13)"/>
<path d="M0 0 C2.0625 1.75 2.0625 1.75 4 4 C3.75 6.25 3.75 6.25 3 8 C2.01 7.34 1.02 6.68 0 6 C-0.1875 2.875 -0.1875 2.875 0 0 Z " fill="#BDB3AE" transform="translate(7,16)"/>
</svg>
