<?xml version="1.0" encoding="UTF-8"?>
<svg version="1.1" xmlns="http://www.w3.org/2000/svg" width="32" height="32">
<path d="M0 0 C10.56 0 21.12 0 32 0 C32 10.56 32 21.12 32 32 C21.44 32 10.88 32 0 32 C0 21.44 0 10.88 0 0 Z " fill="#FBFBFB" transform="translate(0,0)"/>
<path d="M0 0 C3.79259576 2.04216695 7.00344184 4.11780358 9 8 C9.5494224 12.23840134 9.29119754 14.43917511 7.3125 18.25 C3.97520532 22.21867475 1.71950578 23.74989007 -3.4375 24.5 C-8.22112622 23.82861386 -9.64370524 22.43434812 -13 19 C-15.55550471 15.51522085 -15.57216273 12.21970013 -15 8 C-10.93468377 1.70250093 -7.64234618 -0.63686218 0 0 Z " fill="#23211E" transform="translate(19,4)"/>
<path d="M0 0 C5.94 0 11.88 0 18 0 C18.33 1.32 18.66 2.64 19 4 C16.36 4 13.72 4 11 4 C10.67 4.66 10.34 5.32 10 6 C9.67 4.68 9.34 3.36 9 2 C9 3.65 9 5.3 9 7 C9.99 6.34 10.98 5.68 12 5 C14.33199388 4.92094936 16.66832622 4.91201231 19 5 C18.67 5.99 18.34 6.98 18 8 C12.06 8 6.12 8 0 8 C1 6 1 6 4 5 C2.68 4.67 1.36 4.34 0 4 C0 2.68 0 1.36 0 0 Z " fill="#080705" transform="translate(7,12)"/>
<path d="M0 0 C6.6 0 13.2 0 20 0 C17.87909994 4.24180013 17.18353093 5.14065292 13 7 C9.61455408 7.4924285 7.23086236 7.72880008 4.21875 5.9453125 C2.5625 4.625 2.5625 4.625 0 2 C0 1.34 0 0.68 0 0 Z " fill="#0B0B0B" transform="translate(6,21)"/>
<path d="M0 0 C4.08574027 0.78847619 6.37714764 2.0330397 9.5625 4.6875 C9.8925 5.6775 10.2225 6.6675 10.5625 7.6875 C4.2925 7.6875 -1.9775 7.6875 -8.4375 7.6875 C-3.4375 0.6875 -3.4375 0.6875 0 0 Z " fill="#090909" transform="translate(15.4375,3.3125)"/>
<path d="M0 0 C0.33 0 0.66 0 1 0 C1 1.65 1 3.3 1 5 C1.99 4.34 2.98 3.68 4 3 C6.33199388 2.92094936 8.66832622 2.91201231 11 3 C10.67 3.99 10.34 4.98 10 6 C4.06 6 -1.88 6 -8 6 C-7 4 -7 4 -4 3 C-5.32 2.67 -6.64 2.34 -8 2 C-7.67 1.67 -7.34 1.34 -7 1 C-5 1 -3 1 -1 1 C-0.67 0.67 -0.34 0.34 0 0 Z " fill="#0A0908" transform="translate(15,14)"/>
<path d="M0 0 C3.3 0 6.6 0 10 0 C9.34 1.65 8.68 3.3 8 5 C7.67 4.34 7.34 3.68 7 3 C4.69 3 2.38 3 0 3 C0 2.01 0 1.02 0 0 Z " fill="#010000" transform="translate(7,12)"/>
<path d="M0 0 C0.33 0 0.66 0 1 0 C1 1.65 1 3.3 1 5 C-2.34373475 4.44271087 -5.03312999 3.64826111 -8 2 C-7.67 1.67 -7.34 1.34 -7 1 C-5 1 -3 1 -1 1 C-0.67 0.67 -0.34 0.34 0 0 Z " fill="#15110B" transform="translate(15,14)"/>
</svg>
