<?xml version="1.0" standalone="no"?>
<!DOCTYPE svg PUBLIC "-//W3C//DTD SVG 20010904//EN"
 "http://www.w3.org/TR/2001/REC-SVG-20010904/DTD/svg10.dtd">
<svg version="1.0" xmlns="http://www.w3.org/2000/svg"
 width="314.414019pt" height="263.574137pt" viewBox="0 0 314.414019 263.574137"
 preserveAspectRatio="xMidYMid meet">
<metadata>
Created by potrace 1.12, written by Peter Selinger 2001-2015
</metadata>
<g transform="translate(-92.744916,378.903033) scale(0.100000,-0.100000)"
fill="#000000" stroke="none">
<path d="M2285 3775 c-367 -68 -660 -258 -857 -558 -33 -51 -61 -93 -62 -94
-1 -2 0 34 2 80 4 74 2 84 -17 101 -21 20 -22 20 -41 0 -13 -13 -21 -39 -25
-79 -15 -158 -5 -140 -108 -191 -188 -95 -267 -157 -246 -195 15 -29 42 -23
116 25 37 24 101 60 142 81 l74 37 -6 -39 c-3 -21 -12 -104 -19 -185 -12 -147
-12 -147 -40 -159 -15 -6 -48 -24 -73 -40 -34 -22 -45 -35 -45 -54 0 -36 25
-41 77 -16 25 12 48 20 50 17 3 -3 1 -79 -5 -170 -9 -157 -11 -167 -36 -196
-36 -43 -37 -110 -1 -145 50 -51 83 -27 99 72 12 71 29 91 41 46 13 -52 82
-188 139 -272 49 -73 55 -89 50 -118 -11 -58 4 -99 59 -162 29 -33 86 -88 128
-123 492 -406 1223 -374 1671 74 105 105 112 116 110 196 0 58 3 70 27 101
106 135 201 368 226 556 5 33 14 56 28 66 19 16 23 16 50 -5 57 -42 153 -17
237 62 78 75 37 129 -46 58 -71 -60 -135 -83 -148 -51 -3 9 4 20 22 29 36 19
68 54 82 90 16 42 -9 76 -55 76 -44 0 -109 -56 -126 -108 -25 -81 -34 -64 -43
83 -20 335 -224 686 -520 897 -98 70 -273 152 -386 182 -170 45 -382 58 -525
31z m415 -85 c128 -27 202 -53 305 -105 320 -164 547 -461 620 -815 17 -83 31
-312 16 -270 -5 14 -9 48 -10 76 -2 95 -47 97 -112 3 -23 -32 -44 -58 -46 -55
-2 2 5 28 17 57 31 83 25 109 -25 109 -23 0 -53 -40 -71 -94 -9 -28 -35 -87
-57 -131 -22 -44 -73 -165 -114 -270 -73 -186 -93 -227 -93 -192 0 56 26 235
56 390 19 98 32 187 29 197 -9 27 -42 34 -70 16 -14 -9 -43 -41 -66 -71 -23
-31 -44 -54 -46 -51 -6 6 30 74 67 124 28 39 34 43 61 37 56 -13 81 44 37 85
-57 53 -141 7 -213 -116 -45 -77 -152 -194 -177 -194 -25 0 -33 61 -20 148 14
84 5 112 -33 112 -30 0 -51 -30 -60 -90 -8 -49 -23 -82 -55 -119 -29 -34 -41
-17 -50 71 -4 40 -11 81 -15 91 -10 23 -53 22 -79 -2 -21 -20 -21 -20 -21 17
0 31 -4 38 -23 40 -33 5 -49 -12 -73 -78 -24 -65 -86 -134 -115 -128 -16 3
-20 16 -25 76 -5 71 -15 91 -45 92 -14 0 -55 -45 -89 -98 -15 -23 -30 -41 -32
-38 -2 2 8 34 23 71 30 75 26 98 -18 103 -20 2 -31 -5 -49 -30 -12 -18 -24
-35 -26 -37 -8 -10 -33 24 -28 39 3 9 -1 23 -10 30 -8 7 -15 18 -15 24 0 19
-57 66 -80 66 -29 0 -90 -38 -90 -55 0 -8 -6 -18 -12 -22 -17 -11 -38 -49 -38
-69 0 -11 -6 -14 -22 -9 -44 12 -68 29 -68 46 0 47 -87 49 -231 3 -44 -14 -83
-23 -86 -20 -3 3 -1 45 6 93 12 96 63 262 89 292 20 22 235 95 342 115 41 8
124 18 184 22 105 7 109 6 101 -12 -15 -36 -17 -64 -6 -64 26 0 80 30 91 50
20 37 9 73 -30 93 -30 16 -52 18 -160 14 -129 -5 -223 -21 -363 -62 -45 -13
-83 -22 -85 -21 -7 7 99 137 164 201 118 117 289 223 444 275 182 61 421 77
600 40z m-847 -993 c35 -23 35 -24 16 -48 -25 -33 -53 -16 -57 35 -2 20 -1 36
2 36 3 0 21 -10 39 -23z m-273 -76 c0 -5 -7 -14 -15 -21 -12 -10 -12 -14 -1
-25 7 -7 19 -41 26 -75 7 -34 19 -64 27 -67 7 -3 33 -2 57 1 31 5 48 14 64 35
20 27 20 29 3 47 -21 24 -33 52 -23 58 12 7 26 -6 50 -47 18 -32 19 -39 7 -43
-10 -4 -15 -21 -15 -55 0 -44 2 -49 23 -49 12 0 38 -3 58 -6 35 -6 36 -5 57
45 13 28 31 55 42 61 11 6 20 19 20 30 0 10 5 22 10 25 6 4 10 -17 10 -54 0
-49 4 -65 21 -82 35 -35 96 -7 137 64 19 31 32 35 32 8 0 -10 11 -30 25 -45
30 -32 85 -35 131 -7 30 18 31 18 42 0 27 -42 79 -15 117 61 16 31 19 33 26
15 4 -11 10 -33 14 -48 3 -16 18 -40 33 -54 32 -30 81 -27 118 8 l22 21 16
-31 c9 -17 25 -35 35 -41 42 -22 118 -5 150 34 12 14 15 12 30 -16 12 -25 23
-34 48 -36 26 -3 39 4 71 37 l39 41 -13 -58 c-7 -31 -18 -101 -23 -154 -21
-184 -9 -274 41 -311 23 -17 31 -18 56 -8 37 16 67 69 127 231 26 69 62 162
82 207 31 73 37 81 53 71 28 -18 76 8 113 59 l32 45 10 -25 c14 -34 45 -67 63
-67 11 0 13 -9 8 -47 -11 -74 -44 -187 -81 -276 -34 -80 -133 -247 -147 -247
-4 0 -22 9 -40 20 -38 23 -95 26 -141 6 -18 -7 -66 -46 -107 -87 -136 -135
-290 -218 -470 -255 -101 -20 -311 -15 -405 11 -136 36 -401 193 -364 215 6 4
8 13 4 19 -4 8 -11 9 -19 2 -8 -7 -23 2 -51 31 -75 77 -145 92 -234 50 -32
-15 -34 -15 -52 9 -77 98 -172 300 -151 321 10 10 158 47 191 48 11 0 13 -13
8 -60 -4 -51 -3 -60 11 -61 10 0 35 -2 56 -4 22 -2 60 0 85 6 25 6 57 13 71
15 13 3 26 6 27 8 3 3 -37 131 -71 227 l-27 75 -59 -9 c-64 -10 -61 -7 -73
-97 -2 -9 -19 -18 -47 -23 -48 -9 -151 -32 -186 -42 -19 -6 -23 0 -34 42 -7
26 -14 96 -17 154 l-6 106 45 17 c106 41 228 66 228 47z m121 -9 c4 -4 -5 -31
-21 -60 l-27 -53 -36 49 -35 49 31 16 c30 15 74 14 88 -1z m156 -54 c-35 -31
-47 -28 -47 10 0 19 8 32 27 44 26 15 28 15 39 -5 10 -19 8 -25 -19 -49z
m-114 -851 c-3 -5 -16 2 -29 14 -21 20 -24 20 -30 5 -3 -9 -1 -23 6 -31 7 -9
10 -18 6 -22 -3 -4 -12 2 -19 12 -13 17 -15 17 -41 0 -18 -12 -30 -15 -37 -8
-7 7 6 25 41 56 l52 45 28 -31 c16 -18 26 -36 23 -40z m1514 38 c-18 -13 -23
-35 -7 -35 5 0 20 5 34 11 31 14 56 -2 56 -36 0 -26 -34 -60 -50 -50 -6 4 -2
13 12 25 18 14 20 21 11 31 -9 9 -18 9 -42 -1 -34 -13 -61 -2 -61 26 0 20 39
56 52 48 7 -5 6 -11 -5 -19z m-132 -190 c46 -68 38 -87 -23 -56 -55 28 -57 27
-27 -13 16 -21 22 -37 16 -41 -15 -9 -25 -1 -65 54 -44 62 -33 80 32 51 l43
-20 -20 34 c-19 30 -19 46 -1 46 4 0 24 -25 45 -55z m-1236 -47 c-15 -48 -24
-65 -35 -61 -9 3 -12 13 -8 29 7 27 -18 43 -39 26 -7 -6 -19 -7 -26 -3 -9 6 4
21 46 54 77 60 91 50 62 -45z m237 -42 c24 -18 13 -31 -15 -17 -28 16 -34 -2
-11 -32 23 -29 25 -48 8 -65 -18 -18 -53 -14 -73 8 -20 22 -7 27 26 10 29 -16
37 15 10 44 -24 26 -26 37 -9 54 16 16 40 15 64 -2z m730 -14 c16 -10 34 -48
34 -71 0 -22 -44 -61 -70 -61 -53 0 -88 82 -51 119 21 21 66 28 87 13z m-536
-62 c0 -23 5 -30 19 -30 13 0 21 8 23 22 2 13 11 24 21 26 16 3 17 -1 13 -32
-3 -20 -8 -52 -11 -71 -8 -47 -38 -50 -33 -2 2 27 -1 33 -19 35 -20 3 -23 -1
-23 -27 0 -21 -5 -31 -15 -31 -17 0 -19 21 -9 94 8 53 34 66 34 16z m270 -4
c0 -13 3 -44 6 -70 6 -38 4 -46 -9 -46 -16 0 -19 9 -31 103 -4 32 -2 37 15 37
13 0 19 -7 19 -24z"/>
<path d="M2756 2838 c-22 -30 -20 -61 4 -83 25 -23 63 -13 78 21 28 59 -45
115 -82 62z"/>
<path d="M1904 2293 c3 -8 6 -27 6 -41 0 -34 34 -59 56 -41 33 27 7 79 -44 92
-18 4 -22 2 -18 -10z"/>
<path d="M1862 1548 c-14 -14 -16 -28 -3 -28 5 0 11 9 14 20 6 23 5 24 -11 8z"/>
<path d="M2790 1425 c-10 -12 -10 -21 0 -46 10 -24 18 -29 39 -27 32 4 39 30
17 63 -19 28 -38 32 -56 10z"/>
</g>
</svg>
